<svg xmlns="http://www.w3.org/2000/svg" version="1.1" xmlnsXlink="http://www.w3.org/1999/xlink" x="0" y="0" viewBox="0 0 512 512" style="enable-background:new 0 0 512 512" xmlSpace="preserve">
    <g>
        <path xmlns="http://www.w3.org/2000/svg" d="m308.09375 512h-104.1875c-5.523438 0-10-4.476562-10-10v-34.078125c-15.207031-4.449219-29.894531-10.539063-43.835938-18.179687l-24.109374 24.113281c-3.90625 3.902343-10.238282 3.902343-14.144532 0l-73.671875-73.671875c-1.875-1.875-2.929687-4.417969-2.929687-7.070313 0-2.652343 1.054687-5.195312 2.929687-7.074219l24.113281-24.109374c-7.636718-13.941407-13.730468-28.628907-18.179687-43.835938h-34.078125c-5.523438 0-10-4.476562-10-10v-104.1875c0-5.523438 4.476562-10 10-10h34.078125c4.449219-15.207031 10.539063-29.898438 18.179687-43.835938l-24.113281-24.109374c-1.875-1.878907-2.929687-4.421876-2.929687-7.074219 0-2.652344 1.054687-5.195313 2.929687-7.070313l73.671875-73.671875c3.90625-3.902343 10.238282-3.902343 14.140625 0l24.113281 24.113281c13.9375-7.640624 28.628907-13.730468 43.835938-18.179687v-34.078125c0-5.523438 4.476562-10 10-10h104.1875c5.523438 0 10 4.476562 10 10v34.078125c15.207031 4.449219 29.894531 10.539063 43.832031 18.179687l24.113281-24.113281c3.90625-3.902343 10.238282-3.902343 14.140626 0l73.671874 73.671875c3.90625 3.90625 3.90625 10.238282 0 14.144532l-24.113281 24.109374c7.640625 13.941407 13.730469 28.628907 18.183594 43.835938h34.078125c5.523438 0 10 4.480469 10 10v104.1875c0 5.523438-4.476562 10-10 10h-34.078125c-4.449219 15.207031-10.542969 29.898438-18.179687 43.835938l24.113281 24.113281c3.90625 3.902343 3.90625 10.234375 0 14.140625l-73.671875 73.671875c-3.90625 3.90625-10.238282 3.90625-14.144532 0l-24.109374-24.113281c-13.941407 7.640624-28.628907 13.730468-43.835938 18.183593v34.074219c0 5.523438-4.476562 10-10 10zm-94.1875-20h84.1875v-31.710938c0-4.570312 3.101562-8.5625 7.535156-9.6875 18.550782-4.71875 36.335938-12.09375 52.859375-21.921874 3.933594-2.339844 8.949219-1.714844 12.183594 1.519531l22.4375 22.441406 59.53125-59.527344-22.441406-22.441406c-3.230469-3.234375-3.859375-8.25-1.519531-12.183594 9.828124-16.523437 17.203124-34.308593 21.917968-52.859375 1.128906-4.433594 5.117188-7.535156 9.691406-7.535156h31.710938v-84.1875h-31.710938c-4.570312 0-8.5625-3.105469-9.691406-7.535156-4.714844-18.554688-12.089844-36.335938-21.917968-52.859375-2.339844-3.933594-1.710938-8.949219 1.523437-12.183594l22.4375-22.441406-59.527344-59.527344-22.441406 22.441406c-3.234375 3.230469-8.25 3.859375-12.183594 1.519531-16.523437-9.828124-34.308593-17.203124-52.855469-21.921874-4.433593-1.125-7.539062-5.117188-7.539062-9.6875v-31.710938h-84.1875v31.710938c0 4.570312-3.101562 8.5625-7.535156 9.6875-18.550782 4.71875-36.332032 12.09375-52.855469 21.921874-3.933594 2.339844-8.949219 1.710938-12.1875-1.519531l-22.4375-22.441406-59.53125 59.527344 22.441406 22.441406c3.234375 3.234375 3.859375 8.25 1.523438 12.183594-9.832031 16.523437-17.207031 34.308593-21.921875 52.859375-1.125 4.433594-5.117188 7.535156-9.691406 7.535156h-31.710938v84.1875h31.710938c4.570312 0 8.5625 3.105469 9.691406 7.535156 4.714844 18.550782 12.089844 36.335938 21.917968 52.859375 2.339844 3.933594 1.710938 8.949219-1.523437 12.183594l-22.4375 22.441406 59.527344 59.527344 22.441406-22.441406c3.234375-3.230469 8.25-3.859375 12.183594-1.519531 16.523437 9.828124 34.308593 17.203124 52.855469 21.921874 4.433593 1.125 7.539062 5.117188 7.539062 9.6875zm0 0" fill="#000000" data-original="#000000" class=""></path>
        <path xmlns="http://www.w3.org/2000/svg" d="m246.835938 286.660156c-2.652344 0-5.195313-1.054687-7.070313-2.929687l-23.242187-23.242188c-3.90625-3.902343-3.90625-10.234375 0-14.140625s10.238281-3.90625 14.140624 0l16.171876 16.167969 34.246093-34.246094c3.90625-3.90625 10.238281-3.90625 14.140625 0 3.90625 3.90625 3.90625 10.238281 0 14.140625l-41.316406 41.320313c-1.875 1.875-4.417969 2.929687-7.070312 2.929687zm0 0" fill="#000000" data-original="#000000" class=""></path>
        <path xmlns="http://www.w3.org/2000/svg" d="m255.871094 365c-.628906 0-1.257813-.058594-1.878906-.179688-53.378907-10.226562-92.121094-57.097656-92.121094-111.445312v-70.148438c0-4.375 2.847656-8.242187 7.023437-9.546874l83.777344-26.15625c1.019531-.34375 2.117187-.507813 3.199219-.527344h.007812c1.101563 0 2.179688.1875 3.199219.53125l83.773437 26.152344c4.175782 1.304687 7.019532 5.171874 7.019532 9.546874v70.148438c0 54.347656-38.738282 101.21875-92.117188 111.445312-.621094.121094-1.25.179688-1.882812.179688zm-74-174.421875v62.796875c0 44.125 31.007812 82.269531 74 91.421875 42.996094-9.152344 74-47.296875 74-91.421875v-62.796875l-74-23.101563zm0 0" fill="#000000" data-original="#000000" class=""></path>
        <path xmlns="http://www.w3.org/2000/svg" d="m255.871094 417.988281c-89.316406 0-161.984375-72.667969-161.984375-161.988281 0-35.253906 11.128906-68.769531 32.1875-96.925781 20.351562-27.214844 49.34375-47.734375 81.632812-57.777344 5.273438-1.640625 10.878907 1.304687 12.519531 6.578125 1.640626 5.273438-1.304687 10.878906-6.578124 12.519531-59.671876 18.558594-99.761719 73.054688-99.761719 135.605469 0 78.292969 63.695312 141.988281 141.988281 141.988281 78.289062 0 141.984375-63.695312 141.984375-141.988281 0-62.816406-40.308594-117.382812-100.308594-135.773438-5.277343-1.617187-8.246093-7.210937-6.628906-12.492187 1.621094-5.28125 7.210937-8.25 12.492187-6.628906 32.445313 9.945312 61.589844 30.441406 82.070313 57.714843 21.179687 28.207032 32.375 61.8125 32.375 97.179688 0 89.320312-72.667969 161.988281-161.988281 161.988281zm0 0" fill="#000000" data-original="#000000" class=""></path>
        <path xmlns="http://www.w3.org/2000/svg" d="m255.871094 114.011719c-2.632813 0-5.210938-1.070313-7.070313-2.933594-1.859375-1.859375-2.929687-4.429687-2.929687-7.066406 0-2.632813 1.070312-5.210938 2.929687-7.070313s4.4375-2.929687 7.070313-2.929687c2.640625 0 5.207031 1.066406 7.070312 2.929687 1.867188 1.859375 2.929688 4.4375 2.929688 7.070313 0 2.636719-1.0625 5.207031-2.929688 7.066406-1.863281 1.859375-4.429687 2.933594-7.070312 2.933594zm0 0" fill="#000000" data-original="#000000" class=""></path>
    </g>
</svg>